<mxfile host="app.diagrams.net" agent="Mozilla/5.0 (Windows NT 10.0; Win64; x64) AppleWebKit/537.36 (KHTML, like Gecko) Chrome/133.0.0.0 Safari/537.36" version="26.0.16">
  <diagram name="Page-1" id="sm_DsMpHi9HCMapyGH-o">
    <mxGraphModel dx="1050" dy="1372" grid="1" gridSize="10" guides="1" tooltips="1" connect="1" arrows="1" fold="1" page="1" pageScale="1" pageWidth="1100" pageHeight="850" math="0" shadow="0">
      <root>
        <mxCell id="0" />
        <mxCell id="1" parent="0" />
        <mxCell id="oVzpzXNYOjjaTDXGrFNH-1" value="Car" style="swimlane;fontStyle=1;align=center;verticalAlign=top;childLayout=stackLayout;horizontal=1;startSize=26;horizontalStack=0;resizeParent=1;resizeParentMax=0;resizeLast=0;collapsible=1;marginBottom=0;whiteSpace=wrap;html=1;" parent="1" vertex="1">
          <mxGeometry x="202" y="-434" width="160" height="190" as="geometry" />
        </mxCell>
        <mxCell id="oVzpzXNYOjjaTDXGrFNH-2" value="&lt;div&gt;- licensePlate; String&lt;/div&gt;&lt;div&gt;- mileage: Integer&lt;/div&gt;&lt;div&gt;- status: AVAILABLE&lt;/div&gt;&lt;div&gt;&lt;br&gt;&lt;/div&gt;" style="text;strokeColor=none;fillColor=none;align=left;verticalAlign=top;spacingLeft=4;spacingRight=4;overflow=hidden;rotatable=0;points=[[0,0.5],[1,0.5]];portConstraint=eastwest;whiteSpace=wrap;html=1;" parent="oVzpzXNYOjjaTDXGrFNH-1" vertex="1">
          <mxGeometry y="26" width="160" height="130" as="geometry" />
        </mxCell>
        <mxCell id="oVzpzXNYOjjaTDXGrFNH-3" value="" style="line;strokeWidth=1;fillColor=none;align=left;verticalAlign=middle;spacingTop=-1;spacingLeft=3;spacingRight=3;rotatable=0;labelPosition=right;points=[];portConstraint=eastwest;strokeColor=inherit;" parent="oVzpzXNYOjjaTDXGrFNH-1" vertex="1">
          <mxGeometry y="156" width="160" height="8" as="geometry" />
        </mxCell>
        <mxCell id="oVzpzXNYOjjaTDXGrFNH-4" value="+&amp;nbsp;" style="text;strokeColor=none;fillColor=none;align=left;verticalAlign=top;spacingLeft=4;spacingRight=4;overflow=hidden;rotatable=0;points=[[0,0.5],[1,0.5]];portConstraint=eastwest;whiteSpace=wrap;html=1;" parent="oVzpzXNYOjjaTDXGrFNH-1" vertex="1">
          <mxGeometry y="164" width="160" height="26" as="geometry" />
        </mxCell>
        <mxCell id="oVzpzXNYOjjaTDXGrFNH-5" value="Reserve" style="swimlane;fontStyle=1;align=center;verticalAlign=top;childLayout=stackLayout;horizontal=1;startSize=26;horizontalStack=0;resizeParent=1;resizeParentMax=0;resizeLast=0;collapsible=1;marginBottom=0;whiteSpace=wrap;html=1;" parent="1" vertex="1">
          <mxGeometry x="442" y="-421" width="160" height="164" as="geometry" />
        </mxCell>
        <mxCell id="oVzpzXNYOjjaTDXGrFNH-6" value="- startTime: currentTime&lt;div&gt;- endTime: currentTime&lt;/div&gt;&lt;div&gt;- totalCost: double&lt;/div&gt;" style="text;strokeColor=none;fillColor=none;align=left;verticalAlign=top;spacingLeft=4;spacingRight=4;overflow=hidden;rotatable=0;points=[[0,0.5],[1,0.5]];portConstraint=eastwest;whiteSpace=wrap;html=1;" parent="oVzpzXNYOjjaTDXGrFNH-5" vertex="1">
          <mxGeometry y="26" width="160" height="104" as="geometry" />
        </mxCell>
        <mxCell id="oVzpzXNYOjjaTDXGrFNH-7" value="" style="line;strokeWidth=1;fillColor=none;align=left;verticalAlign=middle;spacingTop=-1;spacingLeft=3;spacingRight=3;rotatable=0;labelPosition=right;points=[];portConstraint=eastwest;strokeColor=inherit;" parent="oVzpzXNYOjjaTDXGrFNH-5" vertex="1">
          <mxGeometry y="130" width="160" height="8" as="geometry" />
        </mxCell>
        <mxCell id="oVzpzXNYOjjaTDXGrFNH-8" value="+" style="text;strokeColor=none;fillColor=none;align=left;verticalAlign=top;spacingLeft=4;spacingRight=4;overflow=hidden;rotatable=0;points=[[0,0.5],[1,0.5]];portConstraint=eastwest;whiteSpace=wrap;html=1;" parent="oVzpzXNYOjjaTDXGrFNH-5" vertex="1">
          <mxGeometry y="138" width="160" height="26" as="geometry" />
        </mxCell>
        <mxCell id="oVzpzXNYOjjaTDXGrFNH-9" value="Rental" style="swimlane;fontStyle=1;align=center;verticalAlign=top;childLayout=stackLayout;horizontal=1;startSize=26;horizontalStack=0;resizeParent=1;resizeParentMax=0;resizeLast=0;collapsible=1;marginBottom=0;whiteSpace=wrap;html=1;" parent="1" vertex="1">
          <mxGeometry x="682" y="-421" width="160" height="164" as="geometry" />
        </mxCell>
        <mxCell id="oVzpzXNYOjjaTDXGrFNH-10" value="- startTime: currentTime&lt;div&gt;- endTime: currentTime&lt;/div&gt;&lt;div&gt;- pickupLocaltion: String&lt;/div&gt;&lt;div&gt;- dropOffLocation: String&lt;/div&gt;&lt;div&gt;- mentalAgreement: String&lt;/div&gt;" style="text;strokeColor=none;fillColor=none;align=left;verticalAlign=top;spacingLeft=4;spacingRight=4;overflow=hidden;rotatable=0;points=[[0,0.5],[1,0.5]];portConstraint=eastwest;whiteSpace=wrap;html=1;" parent="oVzpzXNYOjjaTDXGrFNH-9" vertex="1">
          <mxGeometry y="26" width="160" height="104" as="geometry" />
        </mxCell>
        <mxCell id="oVzpzXNYOjjaTDXGrFNH-11" value="" style="line;strokeWidth=1;fillColor=none;align=left;verticalAlign=middle;spacingTop=-1;spacingLeft=3;spacingRight=3;rotatable=0;labelPosition=right;points=[];portConstraint=eastwest;strokeColor=inherit;" parent="oVzpzXNYOjjaTDXGrFNH-9" vertex="1">
          <mxGeometry y="130" width="160" height="8" as="geometry" />
        </mxCell>
        <mxCell id="oVzpzXNYOjjaTDXGrFNH-12" value="+" style="text;strokeColor=none;fillColor=none;align=left;verticalAlign=top;spacingLeft=4;spacingRight=4;overflow=hidden;rotatable=0;points=[[0,0.5],[1,0.5]];portConstraint=eastwest;whiteSpace=wrap;html=1;" parent="oVzpzXNYOjjaTDXGrFNH-9" vertex="1">
          <mxGeometry y="138" width="160" height="26" as="geometry" />
        </mxCell>
        <mxCell id="oVzpzXNYOjjaTDXGrFNH-13" value="Payment" style="swimlane;fontStyle=1;align=center;verticalAlign=top;childLayout=stackLayout;horizontal=1;startSize=26;horizontalStack=0;resizeParent=1;resizeParentMax=0;resizeLast=0;collapsible=1;marginBottom=0;whiteSpace=wrap;html=1;" parent="1" vertex="1">
          <mxGeometry x="922" y="-421" width="160" height="164" as="geometry" />
        </mxCell>
        <mxCell id="oVzpzXNYOjjaTDXGrFNH-14" value="- paymentMethod: String&lt;div&gt;- transcationID: String&lt;/div&gt;&lt;div&gt;&lt;br&gt;&lt;/div&gt;" style="text;strokeColor=none;fillColor=none;align=left;verticalAlign=top;spacingLeft=4;spacingRight=4;overflow=hidden;rotatable=0;points=[[0,0.5],[1,0.5]];portConstraint=eastwest;whiteSpace=wrap;html=1;" parent="oVzpzXNYOjjaTDXGrFNH-13" vertex="1">
          <mxGeometry y="26" width="160" height="104" as="geometry" />
        </mxCell>
        <mxCell id="oVzpzXNYOjjaTDXGrFNH-15" value="" style="line;strokeWidth=1;fillColor=none;align=left;verticalAlign=middle;spacingTop=-1;spacingLeft=3;spacingRight=3;rotatable=0;labelPosition=right;points=[];portConstraint=eastwest;strokeColor=inherit;" parent="oVzpzXNYOjjaTDXGrFNH-13" vertex="1">
          <mxGeometry y="130" width="160" height="8" as="geometry" />
        </mxCell>
        <mxCell id="oVzpzXNYOjjaTDXGrFNH-16" value="+" style="text;strokeColor=none;fillColor=none;align=left;verticalAlign=top;spacingLeft=4;spacingRight=4;overflow=hidden;rotatable=0;points=[[0,0.5],[1,0.5]];portConstraint=eastwest;whiteSpace=wrap;html=1;" parent="oVzpzXNYOjjaTDXGrFNH-13" vertex="1">
          <mxGeometry y="138" width="160" height="26" as="geometry" />
        </mxCell>
        <mxCell id="oVzpzXNYOjjaTDXGrFNH-17" value="MaintenanRecord" style="swimlane;fontStyle=1;align=center;verticalAlign=top;childLayout=stackLayout;horizontal=1;startSize=26;horizontalStack=0;resizeParent=1;resizeParentMax=0;resizeLast=0;collapsible=1;marginBottom=0;whiteSpace=wrap;html=1;" parent="1" vertex="1">
          <mxGeometry x="202" y="-181" width="160" height="164" as="geometry" />
        </mxCell>
        <mxCell id="oVzpzXNYOjjaTDXGrFNH-18" value="&lt;div&gt;- lastMaintenanceDate: currentime&lt;/div&gt;- nextMaintenanceDate: currentTime&lt;div&gt;- maintenanCost: double&lt;/div&gt;&lt;div&gt;&lt;br&gt;&lt;/div&gt;" style="text;strokeColor=none;fillColor=none;align=left;verticalAlign=top;spacingLeft=4;spacingRight=4;overflow=hidden;rotatable=0;points=[[0,0.5],[1,0.5]];portConstraint=eastwest;whiteSpace=wrap;html=1;" parent="oVzpzXNYOjjaTDXGrFNH-17" vertex="1">
          <mxGeometry y="26" width="160" height="104" as="geometry" />
        </mxCell>
        <mxCell id="oVzpzXNYOjjaTDXGrFNH-19" value="" style="line;strokeWidth=1;fillColor=none;align=left;verticalAlign=middle;spacingTop=-1;spacingLeft=3;spacingRight=3;rotatable=0;labelPosition=right;points=[];portConstraint=eastwest;strokeColor=inherit;" parent="oVzpzXNYOjjaTDXGrFNH-17" vertex="1">
          <mxGeometry y="130" width="160" height="8" as="geometry" />
        </mxCell>
        <mxCell id="oVzpzXNYOjjaTDXGrFNH-20" value="+&amp;nbsp;" style="text;strokeColor=none;fillColor=none;align=left;verticalAlign=top;spacingLeft=4;spacingRight=4;overflow=hidden;rotatable=0;points=[[0,0.5],[1,0.5]];portConstraint=eastwest;whiteSpace=wrap;html=1;" parent="oVzpzXNYOjjaTDXGrFNH-17" vertex="1">
          <mxGeometry y="138" width="160" height="26" as="geometry" />
        </mxCell>
        <mxCell id="oVzpzXNYOjjaTDXGrFNH-35" value="" style="endArrow=none;html=1;edgeStyle=orthogonalEdgeStyle;rounded=0;entryX=0;entryY=0.5;entryDx=0;entryDy=0;" parent="1" source="oVzpzXNYOjjaTDXGrFNH-2" target="oVzpzXNYOjjaTDXGrFNH-6" edge="1">
          <mxGeometry relative="1" as="geometry">
            <mxPoint x="582" y="-331" as="sourcePoint" />
            <mxPoint x="442" y="-343" as="targetPoint" />
          </mxGeometry>
        </mxCell>
        <mxCell id="oVzpzXNYOjjaTDXGrFNH-36" value="&amp;nbsp;1" style="edgeLabel;resizable=0;html=1;align=left;verticalAlign=bottom;" parent="oVzpzXNYOjjaTDXGrFNH-35" connectable="0" vertex="1">
          <mxGeometry x="-1" relative="1" as="geometry" />
        </mxCell>
        <mxCell id="oVzpzXNYOjjaTDXGrFNH-37" value="1 .. *&amp;nbsp;" style="edgeLabel;resizable=0;html=1;align=right;verticalAlign=bottom;" parent="oVzpzXNYOjjaTDXGrFNH-35" connectable="0" vertex="1">
          <mxGeometry x="1" relative="1" as="geometry">
            <mxPoint x="-1" as="offset" />
          </mxGeometry>
        </mxCell>
        <mxCell id="oVzpzXNYOjjaTDXGrFNH-39" value="" style="endArrow=none;html=1;rounded=0;exitX=1;exitY=0.5;exitDx=0;exitDy=0;" parent="1" source="oVzpzXNYOjjaTDXGrFNH-6" edge="1">
          <mxGeometry relative="1" as="geometry">
            <mxPoint x="582" y="-331" as="sourcePoint" />
            <mxPoint x="682" y="-343" as="targetPoint" />
          </mxGeometry>
        </mxCell>
        <mxCell id="oVzpzXNYOjjaTDXGrFNH-40" value="&amp;nbsp;0 .. 1" style="edgeLabel;resizable=0;html=1;align=left;verticalAlign=bottom;" parent="oVzpzXNYOjjaTDXGrFNH-39" connectable="0" vertex="1">
          <mxGeometry x="-1" relative="1" as="geometry" />
        </mxCell>
        <mxCell id="oVzpzXNYOjjaTDXGrFNH-41" value="1&amp;nbsp;" style="edgeLabel;resizable=0;html=1;align=right;verticalAlign=bottom;" parent="oVzpzXNYOjjaTDXGrFNH-39" connectable="0" vertex="1">
          <mxGeometry x="1" relative="1" as="geometry" />
        </mxCell>
        <mxCell id="oVzpzXNYOjjaTDXGrFNH-42" value="" style="endArrow=none;html=1;rounded=0;exitX=1;exitY=0.5;exitDx=0;exitDy=0;" parent="1" edge="1">
          <mxGeometry relative="1" as="geometry">
            <mxPoint x="842" y="-341" as="sourcePoint" />
            <mxPoint x="921" y="-341" as="targetPoint" />
          </mxGeometry>
        </mxCell>
        <mxCell id="oVzpzXNYOjjaTDXGrFNH-43" value="&amp;nbsp;1" style="edgeLabel;resizable=0;html=1;align=left;verticalAlign=bottom;" parent="oVzpzXNYOjjaTDXGrFNH-42" connectable="0" vertex="1">
          <mxGeometry x="-1" relative="1" as="geometry" />
        </mxCell>
        <mxCell id="oVzpzXNYOjjaTDXGrFNH-44" value="1&amp;nbsp;" style="edgeLabel;resizable=0;html=1;align=right;verticalAlign=bottom;" parent="oVzpzXNYOjjaTDXGrFNH-42" connectable="0" vertex="1">
          <mxGeometry x="1" relative="1" as="geometry">
            <mxPoint x="-3" as="offset" />
          </mxGeometry>
        </mxCell>
        <mxCell id="oVzpzXNYOjjaTDXGrFNH-45" value="" style="endArrow=none;html=1;edgeStyle=orthogonalEdgeStyle;rounded=0;entryX=0.5;entryY=0;entryDx=0;entryDy=0;exitX=0.5;exitY=1.015;exitDx=0;exitDy=0;exitPerimeter=0;" parent="1" source="oVzpzXNYOjjaTDXGrFNH-4" target="oVzpzXNYOjjaTDXGrFNH-17" edge="1">
          <mxGeometry relative="1" as="geometry">
            <mxPoint x="272" y="-231" as="sourcePoint" />
            <mxPoint x="353" y="-231" as="targetPoint" />
          </mxGeometry>
        </mxCell>
        <mxCell id="oVzpzXNYOjjaTDXGrFNH-46" value="&amp;nbsp;1" style="edgeLabel;resizable=0;html=1;align=left;verticalAlign=bottom;" parent="oVzpzXNYOjjaTDXGrFNH-45" connectable="0" vertex="1">
          <mxGeometry x="-1" relative="1" as="geometry">
            <mxPoint y="20" as="offset" />
          </mxGeometry>
        </mxCell>
        <mxCell id="oVzpzXNYOjjaTDXGrFNH-47" value="1&amp;nbsp;" style="edgeLabel;resizable=0;html=1;align=right;verticalAlign=bottom;" parent="oVzpzXNYOjjaTDXGrFNH-45" connectable="0" vertex="1">
          <mxGeometry x="1" relative="1" as="geometry">
            <mxPoint x="14" y="-1" as="offset" />
          </mxGeometry>
        </mxCell>
        <mxCell id="oVzpzXNYOjjaTDXGrFNH-48" value="Repair" style="swimlane;fontStyle=1;align=center;verticalAlign=top;childLayout=stackLayout;horizontal=1;startSize=26;horizontalStack=0;resizeParent=1;resizeParentMax=0;resizeLast=0;collapsible=1;marginBottom=0;whiteSpace=wrap;html=1;" parent="1" vertex="1">
          <mxGeometry x="442" y="-180.39" width="160" height="164" as="geometry" />
        </mxCell>
        <mxCell id="oVzpzXNYOjjaTDXGrFNH-49" value="&lt;div&gt;- repairDate: currentime&lt;/div&gt;- problem: String&lt;div&gt;- totalCost: double&lt;/div&gt;" style="text;strokeColor=none;fillColor=none;align=left;verticalAlign=top;spacingLeft=4;spacingRight=4;overflow=hidden;rotatable=0;points=[[0,0.5],[1,0.5]];portConstraint=eastwest;whiteSpace=wrap;html=1;" parent="oVzpzXNYOjjaTDXGrFNH-48" vertex="1">
          <mxGeometry y="26" width="160" height="104" as="geometry" />
        </mxCell>
        <mxCell id="oVzpzXNYOjjaTDXGrFNH-50" value="" style="line;strokeWidth=1;fillColor=none;align=left;verticalAlign=middle;spacingTop=-1;spacingLeft=3;spacingRight=3;rotatable=0;labelPosition=right;points=[];portConstraint=eastwest;strokeColor=inherit;" parent="oVzpzXNYOjjaTDXGrFNH-48" vertex="1">
          <mxGeometry y="130" width="160" height="8" as="geometry" />
        </mxCell>
        <mxCell id="oVzpzXNYOjjaTDXGrFNH-51" value="+&amp;nbsp;" style="text;strokeColor=none;fillColor=none;align=left;verticalAlign=top;spacingLeft=4;spacingRight=4;overflow=hidden;rotatable=0;points=[[0,0.5],[1,0.5]];portConstraint=eastwest;whiteSpace=wrap;html=1;" parent="oVzpzXNYOjjaTDXGrFNH-48" vertex="1">
          <mxGeometry y="138" width="160" height="26" as="geometry" />
        </mxCell>
        <mxCell id="oVzpzXNYOjjaTDXGrFNH-52" value="1&amp;nbsp;" style="edgeLabel;resizable=0;html=1;align=right;verticalAlign=bottom;" parent="1" connectable="0" vertex="1">
          <mxGeometry x="536" y="-181" as="geometry" />
        </mxCell>
        <mxCell id="oVzpzXNYOjjaTDXGrFNH-53" value="" style="endArrow=none;html=1;edgeStyle=orthogonalEdgeStyle;rounded=0;entryX=0;entryY=0.5;entryDx=0;entryDy=0;" parent="1" edge="1">
          <mxGeometry relative="1" as="geometry">
            <mxPoint x="362" y="-101" as="sourcePoint" />
            <mxPoint x="443" y="-101" as="targetPoint" />
          </mxGeometry>
        </mxCell>
        <mxCell id="oVzpzXNYOjjaTDXGrFNH-54" value="&amp;nbsp;1" style="edgeLabel;resizable=0;html=1;align=left;verticalAlign=bottom;" parent="oVzpzXNYOjjaTDXGrFNH-53" connectable="0" vertex="1">
          <mxGeometry x="-1" relative="1" as="geometry" />
        </mxCell>
        <mxCell id="oVzpzXNYOjjaTDXGrFNH-55" value="*&amp;nbsp;" style="edgeLabel;resizable=0;html=1;align=right;verticalAlign=bottom;" parent="oVzpzXNYOjjaTDXGrFNH-53" connectable="0" vertex="1">
          <mxGeometry x="1" relative="1" as="geometry">
            <mxPoint x="-1" as="offset" />
          </mxGeometry>
        </mxCell>
        <mxCell id="oVzpzXNYOjjaTDXGrFNH-56" value="Account" style="swimlane;fontStyle=1;align=center;verticalAlign=top;childLayout=stackLayout;horizontal=1;startSize=26;horizontalStack=0;resizeParent=1;resizeParentMax=0;resizeLast=0;collapsible=1;marginBottom=0;whiteSpace=wrap;html=1;" parent="1" vertex="1">
          <mxGeometry x="441" y="-658" width="160" height="164" as="geometry" />
        </mxCell>
        <mxCell id="oVzpzXNYOjjaTDXGrFNH-57" value="&lt;div&gt;- username: String&lt;/div&gt;&lt;div&gt;- password: HashString&lt;/div&gt;&lt;div&gt;- role: ROLE&lt;/div&gt;" style="text;strokeColor=none;fillColor=none;align=left;verticalAlign=top;spacingLeft=4;spacingRight=4;overflow=hidden;rotatable=0;points=[[0,0.5],[1,0.5]];portConstraint=eastwest;whiteSpace=wrap;html=1;" parent="oVzpzXNYOjjaTDXGrFNH-56" vertex="1">
          <mxGeometry y="26" width="160" height="104" as="geometry" />
        </mxCell>
        <mxCell id="oVzpzXNYOjjaTDXGrFNH-58" value="" style="line;strokeWidth=1;fillColor=none;align=left;verticalAlign=middle;spacingTop=-1;spacingLeft=3;spacingRight=3;rotatable=0;labelPosition=right;points=[];portConstraint=eastwest;strokeColor=inherit;" parent="oVzpzXNYOjjaTDXGrFNH-56" vertex="1">
          <mxGeometry y="130" width="160" height="8" as="geometry" />
        </mxCell>
        <mxCell id="oVzpzXNYOjjaTDXGrFNH-59" value="+" style="text;strokeColor=none;fillColor=none;align=left;verticalAlign=top;spacingLeft=4;spacingRight=4;overflow=hidden;rotatable=0;points=[[0,0.5],[1,0.5]];portConstraint=eastwest;whiteSpace=wrap;html=1;" parent="oVzpzXNYOjjaTDXGrFNH-56" vertex="1">
          <mxGeometry y="138" width="160" height="26" as="geometry" />
        </mxCell>
        <mxCell id="oVzpzXNYOjjaTDXGrFNH-61" value="" style="endArrow=none;html=1;rounded=0;exitX=0.5;exitY=0;exitDx=0;exitDy=0;" parent="1" source="oVzpzXNYOjjaTDXGrFNH-5" target="oVzpzXNYOjjaTDXGrFNH-59" edge="1">
          <mxGeometry relative="1" as="geometry">
            <mxPoint x="372" y="-333" as="sourcePoint" />
            <mxPoint x="522" y="-489" as="targetPoint" />
          </mxGeometry>
        </mxCell>
        <mxCell id="oVzpzXNYOjjaTDXGrFNH-62" value="&amp;nbsp;0 .. *" style="edgeLabel;resizable=0;html=1;align=left;verticalAlign=bottom;" parent="oVzpzXNYOjjaTDXGrFNH-61" connectable="0" vertex="1">
          <mxGeometry x="-1" relative="1" as="geometry" />
        </mxCell>
        <mxCell id="oVzpzXNYOjjaTDXGrFNH-63" value="1&amp;nbsp;" style="edgeLabel;resizable=0;html=1;align=right;verticalAlign=bottom;" parent="oVzpzXNYOjjaTDXGrFNH-61" connectable="0" vertex="1">
          <mxGeometry x="1" relative="1" as="geometry">
            <mxPoint x="14" y="19" as="offset" />
          </mxGeometry>
        </mxCell>
        <mxCell id="oVzpzXNYOjjaTDXGrFNH-64" value="" style="endArrow=none;html=1;rounded=0;entryX=1;entryY=0.5;entryDx=0;entryDy=0;exitX=0.5;exitY=0;exitDx=0;exitDy=0;edgeStyle=orthogonalEdgeStyle;" parent="1" source="oVzpzXNYOjjaTDXGrFNH-9" target="oVzpzXNYOjjaTDXGrFNH-57" edge="1">
          <mxGeometry relative="1" as="geometry">
            <mxPoint x="653" y="-518" as="sourcePoint" />
            <mxPoint x="652" y="-589" as="targetPoint" />
          </mxGeometry>
        </mxCell>
        <mxCell id="oVzpzXNYOjjaTDXGrFNH-65" value="&amp;nbsp;0 .. *" style="edgeLabel;resizable=0;html=1;align=left;verticalAlign=bottom;" parent="oVzpzXNYOjjaTDXGrFNH-64" connectable="0" vertex="1">
          <mxGeometry x="-1" relative="1" as="geometry" />
        </mxCell>
        <mxCell id="oVzpzXNYOjjaTDXGrFNH-66" value="1&amp;nbsp;" style="edgeLabel;resizable=0;html=1;align=right;verticalAlign=bottom;" parent="oVzpzXNYOjjaTDXGrFNH-64" connectable="0" vertex="1">
          <mxGeometry x="1" relative="1" as="geometry">
            <mxPoint x="14" y="19" as="offset" />
          </mxGeometry>
        </mxCell>
        <mxCell id="oVzpzXNYOjjaTDXGrFNH-67" value="" style="endArrow=none;html=1;rounded=0;exitX=0.745;exitY=1.169;exitDx=0;exitDy=0;exitPerimeter=0;" parent="1" source="oVzpzXNYOjjaTDXGrFNH-4" edge="1">
          <mxGeometry relative="1" as="geometry">
            <mxPoint x="372" y="-333" as="sourcePoint" />
            <mxPoint x="761" y="-259" as="targetPoint" />
            <Array as="points">
              <mxPoint x="322" y="-219" />
              <mxPoint x="762" y="-219" />
            </Array>
          </mxGeometry>
        </mxCell>
        <mxCell id="oVzpzXNYOjjaTDXGrFNH-68" value="&amp;nbsp;1" style="edgeLabel;resizable=0;html=1;align=left;verticalAlign=bottom;" parent="oVzpzXNYOjjaTDXGrFNH-67" connectable="0" vertex="1">
          <mxGeometry x="-1" relative="1" as="geometry">
            <mxPoint x="1" y="16" as="offset" />
          </mxGeometry>
        </mxCell>
        <mxCell id="oVzpzXNYOjjaTDXGrFNH-69" value="&amp;nbsp;0 .. *&amp;nbsp;" style="edgeLabel;resizable=0;html=1;align=right;verticalAlign=bottom;" parent="oVzpzXNYOjjaTDXGrFNH-67" connectable="0" vertex="1">
          <mxGeometry x="1" relative="1" as="geometry">
            <mxPoint x="-3" y="20" as="offset" />
          </mxGeometry>
        </mxCell>
        <mxCell id="oVzpzXNYOjjaTDXGrFNH-70" value="Customer" style="swimlane;fontStyle=1;align=center;verticalAlign=top;childLayout=stackLayout;horizontal=1;startSize=26;horizontalStack=0;resizeParent=1;resizeParentMax=0;resizeLast=0;collapsible=1;marginBottom=0;whiteSpace=wrap;html=1;" parent="1" vertex="1">
          <mxGeometry x="201" y="-569" width="160" height="124" as="geometry" />
        </mxCell>
        <mxCell id="oVzpzXNYOjjaTDXGrFNH-71" value="&lt;div&gt;- studentI: String&lt;/div&gt;" style="text;strokeColor=none;fillColor=none;align=left;verticalAlign=top;spacingLeft=4;spacingRight=4;overflow=hidden;rotatable=0;points=[[0,0.5],[1,0.5]];portConstraint=eastwest;whiteSpace=wrap;html=1;" parent="oVzpzXNYOjjaTDXGrFNH-70" vertex="1">
          <mxGeometry y="26" width="160" height="64" as="geometry" />
        </mxCell>
        <mxCell id="oVzpzXNYOjjaTDXGrFNH-72" value="" style="line;strokeWidth=1;fillColor=none;align=left;verticalAlign=middle;spacingTop=-1;spacingLeft=3;spacingRight=3;rotatable=0;labelPosition=right;points=[];portConstraint=eastwest;strokeColor=inherit;" parent="oVzpzXNYOjjaTDXGrFNH-70" vertex="1">
          <mxGeometry y="90" width="160" height="8" as="geometry" />
        </mxCell>
        <mxCell id="oVzpzXNYOjjaTDXGrFNH-73" value="+" style="text;strokeColor=none;fillColor=none;align=left;verticalAlign=top;spacingLeft=4;spacingRight=4;overflow=hidden;rotatable=0;points=[[0,0.5],[1,0.5]];portConstraint=eastwest;whiteSpace=wrap;html=1;" parent="oVzpzXNYOjjaTDXGrFNH-70" vertex="1">
          <mxGeometry y="98" width="160" height="26" as="geometry" />
        </mxCell>
        <mxCell id="oVzpzXNYOjjaTDXGrFNH-74" value="" style="endArrow=none;html=1;edgeStyle=orthogonalEdgeStyle;rounded=0;entryX=0.5;entryY=0;entryDx=0;entryDy=0;" parent="1" target="oVzpzXNYOjjaTDXGrFNH-56" edge="1">
          <mxGeometry relative="1" as="geometry">
            <mxPoint x="267" y="-752.36" as="sourcePoint" />
            <mxPoint x="348" y="-752.36" as="targetPoint" />
          </mxGeometry>
        </mxCell>
        <mxCell id="oVzpzXNYOjjaTDXGrFNH-75" value="&amp;nbsp;1" style="edgeLabel;resizable=0;html=1;align=left;verticalAlign=bottom;" parent="oVzpzXNYOjjaTDXGrFNH-74" connectable="0" vertex="1">
          <mxGeometry x="-1" relative="1" as="geometry" />
        </mxCell>
        <mxCell id="oVzpzXNYOjjaTDXGrFNH-76" value="1&amp;nbsp;" style="edgeLabel;resizable=0;html=1;align=right;verticalAlign=bottom;" parent="oVzpzXNYOjjaTDXGrFNH-74" connectable="0" vertex="1">
          <mxGeometry x="1" relative="1" as="geometry">
            <mxPoint x="-1" as="offset" />
          </mxGeometry>
        </mxCell>
        <mxCell id="oVzpzXNYOjjaTDXGrFNH-78" value="ROLE:&lt;div&gt;- USER,&lt;/div&gt;&lt;div&gt;- STUDENT,&lt;/div&gt;&lt;div&gt;- ADMIN&lt;/div&gt;" style="shape=note;size=20;whiteSpace=wrap;html=1;align=left;fillColor=#fff2cc;strokeColor=#d6b656;" parent="1" vertex="1">
          <mxGeometry x="612" y="-679" width="100" height="80" as="geometry" />
        </mxCell>
        <mxCell id="oVzpzXNYOjjaTDXGrFNH-80" value="Employee" style="swimlane;fontStyle=1;align=center;verticalAlign=top;childLayout=stackLayout;horizontal=1;startSize=26;horizontalStack=0;resizeParent=1;resizeParentMax=0;resizeLast=0;collapsible=1;marginBottom=0;whiteSpace=wrap;html=1;" parent="1" vertex="1">
          <mxGeometry x="17" y="-569" width="160" height="124" as="geometry" />
        </mxCell>
        <mxCell id="oVzpzXNYOjjaTDXGrFNH-81" value="&lt;div&gt;- role: ROLE&lt;/div&gt;" style="text;strokeColor=none;fillColor=none;align=left;verticalAlign=top;spacingLeft=4;spacingRight=4;overflow=hidden;rotatable=0;points=[[0,0.5],[1,0.5]];portConstraint=eastwest;whiteSpace=wrap;html=1;" parent="oVzpzXNYOjjaTDXGrFNH-80" vertex="1">
          <mxGeometry y="26" width="160" height="64" as="geometry" />
        </mxCell>
        <mxCell id="oVzpzXNYOjjaTDXGrFNH-82" value="" style="line;strokeWidth=1;fillColor=none;align=left;verticalAlign=middle;spacingTop=-1;spacingLeft=3;spacingRight=3;rotatable=0;labelPosition=right;points=[];portConstraint=eastwest;strokeColor=inherit;" parent="oVzpzXNYOjjaTDXGrFNH-80" vertex="1">
          <mxGeometry y="90" width="160" height="8" as="geometry" />
        </mxCell>
        <mxCell id="oVzpzXNYOjjaTDXGrFNH-83" value="+" style="text;strokeColor=none;fillColor=none;align=left;verticalAlign=top;spacingLeft=4;spacingRight=4;overflow=hidden;rotatable=0;points=[[0,0.5],[1,0.5]];portConstraint=eastwest;whiteSpace=wrap;html=1;" parent="oVzpzXNYOjjaTDXGrFNH-80" vertex="1">
          <mxGeometry y="98" width="160" height="26" as="geometry" />
        </mxCell>
        <mxCell id="oVzpzXNYOjjaTDXGrFNH-84" value="Person" style="swimlane;fontStyle=1;align=center;verticalAlign=top;childLayout=stackLayout;horizontal=1;startSize=26;horizontalStack=0;resizeParent=1;resizeParentMax=0;resizeLast=0;collapsible=1;marginBottom=0;whiteSpace=wrap;html=1;" parent="1" vertex="1">
          <mxGeometry x="107" y="-840" width="160" height="220" as="geometry" />
        </mxCell>
        <mxCell id="oVzpzXNYOjjaTDXGrFNH-85" value="&lt;div&gt;- firstName: String&lt;/div&gt;&lt;div&gt;- lastName: String&lt;/div&gt;&lt;div&gt;- dob: datetime&lt;/div&gt;&lt;div&gt;- ssn: String&lt;/div&gt;&lt;div&gt;- passport: String&lt;/div&gt;&lt;div&gt;- phone: String&lt;/div&gt;&lt;div&gt;- email: String&lt;/div&gt;&lt;div&gt;- street: String&lt;/div&gt;&lt;div&gt;- city: String&lt;/div&gt;&lt;div&gt;- state: String&lt;/div&gt;&lt;div&gt;- zip: String&lt;/div&gt;" style="text;strokeColor=none;fillColor=none;align=left;verticalAlign=top;spacingLeft=4;spacingRight=4;overflow=hidden;rotatable=0;points=[[0,0.5],[1,0.5]];portConstraint=eastwest;whiteSpace=wrap;html=1;" parent="oVzpzXNYOjjaTDXGrFNH-84" vertex="1">
          <mxGeometry y="26" width="160" height="164" as="geometry" />
        </mxCell>
        <mxCell id="oVzpzXNYOjjaTDXGrFNH-86" value="" style="line;strokeWidth=1;fillColor=none;align=left;verticalAlign=middle;spacingTop=-1;spacingLeft=3;spacingRight=3;rotatable=0;labelPosition=right;points=[];portConstraint=eastwest;strokeColor=inherit;" parent="oVzpzXNYOjjaTDXGrFNH-84" vertex="1">
          <mxGeometry y="190" width="160" height="8" as="geometry" />
        </mxCell>
        <mxCell id="oVzpzXNYOjjaTDXGrFNH-87" value="+" style="text;strokeColor=none;fillColor=none;align=left;verticalAlign=top;spacingLeft=4;spacingRight=4;overflow=hidden;rotatable=0;points=[[0,0.5],[1,0.5]];portConstraint=eastwest;whiteSpace=wrap;html=1;" parent="oVzpzXNYOjjaTDXGrFNH-84" vertex="1">
          <mxGeometry y="198" width="160" height="22" as="geometry" />
        </mxCell>
        <mxCell id="oVzpzXNYOjjaTDXGrFNH-88" value="Extends" style="endArrow=block;endSize=16;endFill=0;html=1;rounded=0;entryX=0.522;entryY=0.973;entryDx=0;entryDy=0;entryPerimeter=0;exitX=0.5;exitY=0;exitDx=0;exitDy=0;edgeStyle=orthogonalEdgeStyle;" parent="1" source="oVzpzXNYOjjaTDXGrFNH-70" edge="1">
          <mxGeometry x="-0.0031" width="160" relative="1" as="geometry">
            <mxPoint x="409" y="-569" as="sourcePoint" />
            <mxPoint x="189.51999999999998" y="-619.7020000000001" as="targetPoint" />
            <mxPoint as="offset" />
          </mxGeometry>
        </mxCell>
        <mxCell id="oVzpzXNYOjjaTDXGrFNH-89" value="Extends" style="endArrow=block;endSize=16;endFill=0;html=1;rounded=0;entryX=0.519;entryY=1.027;entryDx=0;entryDy=0;entryPerimeter=0;exitX=0.5;exitY=0;exitDx=0;exitDy=0;edgeStyle=orthogonalEdgeStyle;" parent="1" source="oVzpzXNYOjjaTDXGrFNH-80" edge="1">
          <mxGeometry x="-0.0031" width="160" relative="1" as="geometry">
            <mxPoint x="304" y="-561" as="sourcePoint" />
            <mxPoint x="189.0400000000002" y="-618.2980000000001" as="targetPoint" />
            <mxPoint as="offset" />
          </mxGeometry>
        </mxCell>
        <mxCell id="oVzpzXNYOjjaTDXGrFNH-90" value="CarType" style="swimlane;fontStyle=1;align=center;verticalAlign=top;childLayout=stackLayout;horizontal=1;startSize=26;horizontalStack=0;resizeParent=1;resizeParentMax=0;resizeLast=0;collapsible=1;marginBottom=0;whiteSpace=wrap;html=1;" parent="1" vertex="1">
          <mxGeometry x="17" y="-434" width="160" height="190" as="geometry" />
        </mxCell>
        <mxCell id="oVzpzXNYOjjaTDXGrFNH-91" value="&lt;div&gt;-&amp;nbsp;&lt;span style=&quot;background-color: transparent; color: light-dark(rgb(0, 0, 0), rgb(255, 255, 255));&quot;&gt;type: String&lt;/span&gt;&lt;/div&gt;&lt;div&gt;- make: String&lt;/div&gt;&lt;div&gt;- year: Integer&lt;/div&gt;&lt;div&gt;&lt;span style=&quot;color: rgba(0, 0, 0, 0); font-family: monospace; font-size: 0px; text-wrap-mode: nowrap; background-color: transparent;&quot;&gt;%3CmxGraphModel%3E%3Croot%3E%3CmxCell%20id%3D%220%22%2F%3E%3CmxCell%20id%3D%221%22%20parent%3D%220%22%2F%3E%3CmxCell%20id%3D%222%22%20value%3D%22Car%22%20style%3D%22swimlane%3BfontStyle%3D1%3Balign%3Dcenter%3BverticalAlign%3Dtop%3BchildLayout%3DstackLayout%3Bhorizontal%3D1%3BstartSize%3D26%3BhorizontalStack%3D0%3BresizeParent%3D1%3BresizeParentMax%3D0%3BresizeLast%3D0%3Bcollapsible%3D1%3BmarginBottom%3D0%3BwhiteSpace%3Dwrap%3Bhtml%3D1%3B%22%20vertex%3D%221%22%20parent%3D%221%22%3E%3CmxGeometry%20x%3D%22202%22%20y%3D%22-434%22%20width%3D%22160%22%20height%3D%22190%22%20as%3D%22geometry%22%2F%3E%3C%2FmxCell%3E%3CmxCell%20id%3D%223%22%20value%3D%22%26lt%3Bdiv%26gt%3B-%20licensePlate%3B%20String%26lt%3B%2Fdiv%26gt%3B-%20type%3A%20String%26lt%3Bdiv%26gt%3B-%20make%3A%20String%26lt%3B%2Fdiv%26gt%3B%26lt%3Bdiv%26gt%3B-%20year%3A%20Integer%26lt%3B%2Fdiv%26gt%3B%26lt%3Bdiv%26gt%3B-%20mileage%3A%20Integer%26lt%3B%2Fdiv%26gt%3B%26lt%3Bdiv%26gt%3B-%20status%3A%20AVAILABLE%26lt%3B%2Fdiv%26gt%3B%26lt%3Bdiv%26gt%3B-%20bookingHistory%3A%20bookings%26lt%3B%2Fdiv%26gt%3B%26lt%3Bdiv%26gt%3B-%20rentalHistory%3A%20rentals%26lt%3B%2Fdiv%26gt%3B%22%20style%3D%22text%3BstrokeColor%3Dnone%3BfillColor%3Dnone%3Balign%3Dleft%3BverticalAlign%3Dtop%3BspacingLeft%3D4%3BspacingRight%3D4%3Boverflow%3Dhidden%3Brotatable%3D0%3Bpoints%3D%5B%5B0%2C0.5%5D%2C%5B1%2C0.5%5D%5D%3BportConstraint%3Deastwest%3BwhiteSpace%3Dwrap%3Bhtml%3D1%3B%22%20vertex%3D%221%22%20parent%3D%222%22%3E%3CmxGeometry%20y%3D%2226%22%20width%3D%22160%22%20height%3D%22130%22%20as%3D%22geometry%22%2F%3E%3C%2FmxCell%3E%3CmxCell%20id%3D%224%22%20value%3D%22%22%20style%3D%22line%3BstrokeWidth%3D1%3BfillColor%3Dnone%3Balign%3Dleft%3BverticalAlign%3Dmiddle%3BspacingTop%3D-1%3BspacingLeft%3D3%3BspacingRight%3D3%3Brotatable%3D0%3BlabelPosition%3Dright%3Bpoints%3D%5B%5D%3BportConstraint%3Deastwest%3BstrokeColor%3Dinherit%3B%22%20vertex%3D%221%22%20parent%3D%222%22%3E%3CmxGeometry%20y%3D%22156%22%20width%3D%22160%22%20height%3D%228%22%20as%3D%22geometry%22%2F%3E%3C%2FmxCell%3E%3CmxCell%20id%3D%225%22%20value%3D%22%2B%26amp%3Bnbsp%3B%22%20style%3D%22text%3BstrokeColor%3Dnone%3BfillColor%3Dnone%3Balign%3Dleft%3BverticalAlign%3Dtop%3BspacingLeft%3D4%3BspacingRight%3D4%3Boverflow%3Dhidden%3Brotatable%3D0%3Bpoints%3D%5B%5B0%2C0.5%5D%2C%5B1%2C0.5%5D%5D%3BportConstraint%3Deastwest%3BwhiteSpace%3Dwrap%3Bhtml%3D1%3B%22%20vertex%3D%221%22%20parent%3D%222%22%3E%3CmxGeometry%20y%3D%22164%22%20width%3D%22160%22%20height%3D%2226%22%20as%3D%22geometry%22%2F%3E%3C%2FmxCell%3E%3C%2Froot%3E%3C%2FmxGraphModel%&lt;/span&gt;&lt;/div&gt;&lt;div&gt;&lt;br&gt;&lt;/div&gt;" style="text;strokeColor=none;fillColor=none;align=left;verticalAlign=top;spacingLeft=4;spacingRight=4;overflow=hidden;rotatable=0;points=[[0,0.5],[1,0.5]];portConstraint=eastwest;whiteSpace=wrap;html=1;" parent="oVzpzXNYOjjaTDXGrFNH-90" vertex="1">
          <mxGeometry y="26" width="160" height="130" as="geometry" />
        </mxCell>
        <mxCell id="oVzpzXNYOjjaTDXGrFNH-92" value="" style="line;strokeWidth=1;fillColor=none;align=left;verticalAlign=middle;spacingTop=-1;spacingLeft=3;spacingRight=3;rotatable=0;labelPosition=right;points=[];portConstraint=eastwest;strokeColor=inherit;" parent="oVzpzXNYOjjaTDXGrFNH-90" vertex="1">
          <mxGeometry y="156" width="160" height="8" as="geometry" />
        </mxCell>
        <mxCell id="oVzpzXNYOjjaTDXGrFNH-93" value="+&amp;nbsp;" style="text;strokeColor=none;fillColor=none;align=left;verticalAlign=top;spacingLeft=4;spacingRight=4;overflow=hidden;rotatable=0;points=[[0,0.5],[1,0.5]];portConstraint=eastwest;whiteSpace=wrap;html=1;" parent="oVzpzXNYOjjaTDXGrFNH-90" vertex="1">
          <mxGeometry y="164" width="160" height="26" as="geometry" />
        </mxCell>
        <mxCell id="oVzpzXNYOjjaTDXGrFNH-94" value="" style="endArrow=none;html=1;edgeStyle=orthogonalEdgeStyle;rounded=0;entryX=0.21;entryY=1.081;entryDx=0;entryDy=0;entryPerimeter=0;" parent="1" source="oVzpzXNYOjjaTDXGrFNH-93" target="oVzpzXNYOjjaTDXGrFNH-4" edge="1">
          <mxGeometry relative="1" as="geometry">
            <mxPoint x="70" y="-210" as="sourcePoint" />
            <mxPoint x="150" y="-210" as="targetPoint" />
            <Array as="points">
              <mxPoint x="90" y="-210" />
              <mxPoint x="236" y="-210" />
            </Array>
          </mxGeometry>
        </mxCell>
        <mxCell id="oVzpzXNYOjjaTDXGrFNH-95" value="&amp;nbsp;1" style="edgeLabel;resizable=0;html=1;align=left;verticalAlign=bottom;" parent="oVzpzXNYOjjaTDXGrFNH-94" connectable="0" vertex="1">
          <mxGeometry x="-1" relative="1" as="geometry">
            <mxPoint x="-22" y="22" as="offset" />
          </mxGeometry>
        </mxCell>
        <mxCell id="oVzpzXNYOjjaTDXGrFNH-96" value="1 .. *&amp;nbsp;" style="edgeLabel;resizable=0;html=1;align=right;verticalAlign=bottom;" parent="oVzpzXNYOjjaTDXGrFNH-94" connectable="0" vertex="1">
          <mxGeometry x="1" relative="1" as="geometry">
            <mxPoint x="-4" y="21" as="offset" />
          </mxGeometry>
        </mxCell>
        <mxCell id="oVzpzXNYOjjaTDXGrFNH-97" value="" style="endArrow=none;html=1;rounded=0;exitX=0.498;exitY=1.002;exitDx=0;exitDy=0;entryX=0.566;entryY=0.966;entryDx=0;entryDy=0;entryPerimeter=0;exitPerimeter=0;edgeStyle=orthogonalEdgeStyle;" parent="1" source="oVzpzXNYOjjaTDXGrFNH-8" target="oVzpzXNYOjjaTDXGrFNH-16" edge="1">
          <mxGeometry relative="1" as="geometry">
            <mxPoint x="860" y="-230" as="sourcePoint" />
            <mxPoint x="939" y="-230" as="targetPoint" />
            <Array as="points">
              <mxPoint x="522" y="-230" />
              <mxPoint x="1013" y="-230" />
            </Array>
          </mxGeometry>
        </mxCell>
        <mxCell id="oVzpzXNYOjjaTDXGrFNH-98" value="&amp;nbsp;1" style="edgeLabel;resizable=0;html=1;align=left;verticalAlign=bottom;" parent="oVzpzXNYOjjaTDXGrFNH-97" connectable="0" vertex="1">
          <mxGeometry x="-1" relative="1" as="geometry">
            <mxPoint x="1" y="21" as="offset" />
          </mxGeometry>
        </mxCell>
        <mxCell id="oVzpzXNYOjjaTDXGrFNH-99" value="1&amp;nbsp;" style="edgeLabel;resizable=0;html=1;align=right;verticalAlign=bottom;" parent="oVzpzXNYOjjaTDXGrFNH-97" connectable="0" vertex="1">
          <mxGeometry x="1" relative="1" as="geometry">
            <mxPoint x="-4" y="20" as="offset" />
          </mxGeometry>
        </mxCell>
        <mxCell id="EUon-xqT_ry1lTiMBMiV-1" value="&lt;h1 style=&quot;margin-top: 0px;&quot;&gt;Description&lt;/h1&gt;&lt;p&gt;Class customer and employee are children of person with information of ID, SSN, address, phone, mobile.&lt;/p&gt;&lt;p&gt;Each customer, employee is associated with an account contains username and password to access system.&lt;/p&gt;&lt;p&gt;Each account does one or many reserve. After payment, the reserve is confirmed to create rental.&lt;/p&gt;&lt;p&gt;Customer can make rental without reserve.&lt;/p&gt;&lt;p&gt;Each reserve is for one car.&amp;nbsp;&lt;/p&gt;&lt;p&gt;Each rental is for one car.&lt;/p&gt;&lt;p&gt;Each car has one maintenance record. The maintenance record contains many repairs for the car.&lt;/p&gt;" style="text;html=1;whiteSpace=wrap;overflow=hidden;rounded=0;" vertex="1" parent="1">
          <mxGeometry x="40" y="40" width="1000" height="260" as="geometry" />
        </mxCell>
      </root>
    </mxGraphModel>
  </diagram>
</mxfile>
